<?xml version="1.0" encoding="UTF-8" standalone="no"?>
<!-- Created with Inkscape (http://www.inkscape.org/) -->

<svg
   xmlns:dc="http://purl.org/dc/elements/1.1/"
   xmlns:cc="http://creativecommons.org/ns#"
   xmlns:rdf="http://www.w3.org/1999/02/22-rdf-syntax-ns#"
   xmlns:svg="http://www.w3.org/2000/svg"
   xmlns="http://www.w3.org/2000/svg"
   xmlns:sodipodi="http://sodipodi.sourceforge.net/DTD/sodipodi-0.dtd"
   xmlns:inkscape="http://www.inkscape.org/namespaces/inkscape"
   id="svg2"
   version="1.1"
   inkscape:version="0.91 r13725"
   xml:space="preserve"
   width="207.53751"
   height="182.41251"
   viewBox="0 0 207.53751 182.41251"
   sodipodi:docname="ironyard.svg"><metadata
     id="metadata8"><rdf:RDF><cc:Work
         rdf:about=""><dc:format>image/svg+xml</dc:format><dc:type
           rdf:resource="http://purl.org/dc/dcmitype/StillImage" /><dc:title></dc:title></cc:Work></rdf:RDF></metadata><defs
     id="defs6" /><sodipodi:namedview
     pagecolor="#ffffff"
     bordercolor="#666666"
     borderopacity="1"
     objecttolerance="10"
     gridtolerance="10"
     guidetolerance="10"
     inkscape:pageopacity="0"
     inkscape:pageshadow="2"
     inkscape:window-width="735"
     inkscape:window-height="480"
     id="namedview4"
     showgrid="false"
     inkscape:zoom="1.2937709"
     inkscape:cx="103.76875"
     inkscape:cy="91.206253"
     inkscape:window-x="2498"
     inkscape:window-y="353"
     inkscape:window-maximized="0"
     inkscape:current-layer="g10" /><g
     id="g10"
     inkscape:groupmode="layer"
     inkscape:label="ink_ext_XXXXXX"
     transform="matrix(1.25,0,0,-1.25,0,182.4125)"><g
       id="g12"
       transform="scale(0.1,0.1)"><path
         d="m 993.391,1067.17 c 1.386,0.83 3.929,2 5.859,2 1.97,0 3.34,-0.83 3.34,-3.05 0,-8.67 -36.762,-47.96 -52.652,-47.98 -1.387,0 -4.454,0.29 -6.672,3.63 12.824,15.62 31.472,32.63 50.125,45.4 z m 40.809,113.7 c -25.06,20.06 -25.9,16.77 -29.49,16.77 -5.612,0 -132.065,-7.88 -261.878,-7.88 -55.141,0 -98.387,5.17 -127.152,-7.23 -72.246,-31.19 -83.852,-126.3 -23.852,-124.27 63.188,2.19 95.848,33.74 117.074,66.96 6.59,10.33 2.692,14.13 -3.422,6.51 -15.789,-19.57 -42.128,-42.07 -70.996,-52.4 -68.285,-24.49 -43.5,76.91 3.676,89.97 37.473,10.38 99.981,-7.62 158.981,-17.96 0,0 -4.453,-3.11 -6.707,-4.77 -5.016,-3.9 -29.528,-25.35 -72.149,-66.53 -25.359,-24.56 -75.789,-73.01 -75.789,-90.575 0,-6.387 19.227,-39.555 30.391,-39.555 4.183,0 1.39,8.945 23.14,37.016 36.504,47.394 92.731,102.304 115.024,123.964 18.988,18.4 44.312,39.01 52.953,39.01 7.113,0 17.059,0.28 28.34,0.77 -44.399,-39.88 -117.004,-106.9 -151.68,-157.58 -1.66,-2.488 -2.508,-4.996 -2.508,-6.383 0,-10.269 18.399,-25.059 23.684,-25.059 3.066,0 7.808,11.114 10.043,13.622 38.742,47.35 63.254,68.23 84.972,77.46 -18.906,-18.68 -40.386,-39.29 -40.386,-56.843 0,-13.891 8.117,-33.391 23.953,-33.391 13.078,0 41.351,20.5 58.293,36.102 1.473,-11.774 26.558,-38.66 38.453,-38.66 27.289,0 54.832,19.55 75.182,38.167 11.43,10.335 22.54,23.155 22.54,26.225 0,1.05 -0.25,2.78 -2.44,2.78 -2.57,0 -29.3,-24.79 -80.239,-43.505 -3.406,-1.05 -9.488,-2.781 -14.5,-2.781 -8.609,0 -10.895,5.883 -10.895,10.336 0,4.996 3.102,11.99 8.387,20.06 6.113,-6.46 14.481,-9.79 20.344,-9.79 20.871,0 66.823,37.89 66.823,64.67 0,3.58 -0.84,8.34 -10.82,17.52 -7.03,7.83 -14.788,13.67 -20.632,13.67 -10.621,0 -27.629,-8.9 -49.891,-28.95 -11.347,-10.23 -22.273,-21.28 -30.234,-33.22 -2.848,-4.34 -12.535,-18.06 -21.922,-25.29 -16.144,-12.521 -33.422,-23.955 -38.98,-23.955 -1.981,0 -3.641,1.051 -3.641,3.879 0,14.226 42.621,47.616 55.988,59.066 4.742,4.17 5.875,5.56 5.875,8.9 0,11.45 -16.16,20.34 -24.816,20.34 -14.516,0 -25.07,-6.66 -43.195,-15.55 7.082,8.95 33.523,27.67 71.402,63.68 11.805,11.16 26.441,22.83 45.769,28.22 25.36,1.83 51.007,4.02 71.387,6.39 7.23,0.84 18.94,3.33 18.94,6.67 0,4.51 -9.78,10.33 -13.4,13.4"
         style="fill:#ffffff;fill-opacity:1;fill-rule:nonzero;stroke:none"
         id="path14"
         inkscape:connector-curvature="0" /><path
         d="m 904.727,547.945 57.156,0 c 10.586,0 14.601,-0.73 16.754,-2.898 3.285,-3.66 4.062,-9.149 4.062,-22.277 0,-13.125 -0.777,-18.633 -4.062,-22.223 -2.168,-2.188 -6.168,-2.949 -16.754,-2.949 l -57.156,0 0,50.347 z m -268.11,-68.234 18.856,59.121 17.871,0 18.347,-59.121 -55.074,0 z m 608.293,67.504 c 16.47,0 22.65,-1.082 26.31,-4.727 4.02,-4.062 5.46,-14.617 5.46,-66.062 0,-51.055 -1.44,-61.957 -5.46,-66.016 -3.64,-3.59 -9.82,-4.711 -26.31,-4.711 l -59.44,0 -0.69,141.516 60.13,0 z m -312.437,-141.516 -27.731,0 0,39.403 42.86,0 56.558,-96.301 252.87,0 c 36.81,0 56.54,4.758 71.86,20.109 17.44,17.442 26.61,43.731 26.61,107.481 0,63.843 -9.17,90.121 -26.61,107.636 -15.32,15.348 -35.05,20.075 -71.86,20.075 l -174.01,0 0,-56.903 26.97,0 0,-141.519 -51.41,0 -38.68,65.629 c 29.54,5.828 41.57,16.836 41.57,62 0,31.796 -3.61,45.972 -14.92,57.308 -9.86,9.84 -24.11,13.5 -45.94,13.5 l -197.606,0 0,-56.902 26.969,0 0,-141.516 -37.981,0 -67.371,199.52 -114.836,0 -67.64,-199.52 -29.153,0 0,-56.879 127.235,0 0,55.782 -23.344,0 5.844,21.878 82.82,0 6.199,-21.878 -23.344,0 0,-55.782 244.071,0 0,56.879"
         style="fill:#ffffff;fill-opacity:1;fill-rule:nonzero;stroke:none"
         id="path16"
         inkscape:connector-curvature="0" /><path
         d="m 976.316,706.891 c -2.238,-2.235 -5.843,-2.946 -16.789,-2.946 l -36.793,0 c -10.925,0 -14.535,0.711 -16.769,2.946 -2.574,2.543 -4.406,10.214 -4.406,66.386 0,55.786 1.847,63.797 4.406,66.356 2.234,2.152 5.828,2.93 16.769,2.93 l 36.793,0 c 10.926,0 14.551,-0.778 16.789,-2.93 2.555,-2.559 4.387,-10.57 4.387,-66.356 0,-55.816 -1.848,-63.828 -4.387,-66.386 z m 12.383,194.011 -95.152,0 c -26.598,0 -37.539,-3.996 -47.363,-13.89 -15.028,-14.567 -23.364,-43.348 -23.364,-113.75 0,-70.418 8.336,-99.25 23.364,-113.801 9.808,-9.895 20.765,-13.875 47.363,-13.875 l 95.152,0 c 26.591,0 37.591,3.98 47.381,13.875 15.02,14.551 23.38,43.383 23.38,113.801 0,70.418 -8.36,99.199 -23.38,113.75 -9.79,9.894 -20.79,13.89 -47.381,13.89"
         style="fill:#ffffff;fill-opacity:1;fill-rule:nonzero;stroke:none"
         id="path18"
         inkscape:connector-curvature="0" /><path
         d="m 541.246,547.215 25.902,0 0,56.902 -127.675,0 0,-56.172 22.257,0 -30.304,-43.808 -1.457,0 -28.051,43.808 22.223,0 0,56.172 -132.536,0 0,-56.902 25.305,0 74.063,-101.805 0,-39.73 -28.817,0 0,-56.879 132.407,0 0,56.898 -28.833,0 0,40.821 75.516,100.695"
         style="fill:#ffffff;fill-opacity:1;fill-rule:nonzero;stroke:none"
         id="path20"
         inkscape:connector-curvature="0" /><path
         d="m 512.992,702.488 -68.742,0 0,141.532 68.742,0 0,56.902 -221.406,0 0,-56.902 68.793,0 0,-141.532 -68.793,0 0,-56.886 221.406,0 0,56.886"
         style="fill:#ffffff;fill-opacity:1;fill-rule:nonzero;stroke:none"
         id="path22"
         inkscape:connector-curvature="0" /><path
         d="m 1249.72,844.055 25.16,0 0,-73.692 -84.87,130.575 -116.07,0 0,-56.903 26.97,0 0,-141.531 -26.97,0 0,-56.887 121.76,0 -0.35,56.887 -26.95,0 0,88.613 89.91,-145.515 83.99,0 0,198.418 26.36,0 0,56.933 -118.94,0 0,-56.898"
         style="fill:#ffffff;fill-opacity:1;fill-rule:nonzero;stroke:none"
         id="path24"
         inkscape:connector-curvature="0" /><path
         d="m 635.297,844.73 57.105,0 c 10.586,0 14.618,-0.71 16.786,-2.945 3.273,-3.609 4.015,-9.047 4.015,-22.226 0,-13.114 -0.742,-18.618 -4.015,-22.227 -2.168,-2.219 -6.18,-2.93 -16.77,-2.945 l -57.121,0 0,50.343 z m 42.859,-102.839 56.492,-96.289 78.856,0 0,56.886 -24.41,0 -38.656,65.676 c 29.527,5.844 41.554,16.719 41.554,62.016 0,31.726 -3.609,45.957 -14.957,57.293 -9.828,9.773 -24.074,13.449 -45.941,13.449 l -197.555,0 0,-56.902 26.953,0 0,-141.532 -26.953,0 0,-56.886 129.453,0 0,56.886 -27.695,0 0,39.403 42.859,0"
         style="fill:#ffffff;fill-opacity:1;fill-rule:nonzero;stroke:none"
         id="path26"
         inkscape:connector-curvature="0" /><path
         d="m 655.473,538.832 -18.856,-59.121 55.074,0 -18.347,59.121 -17.871,0"
         style="fill:#263241;fill-opacity:1;fill-rule:nonzero;stroke:none"
         id="path28"
         inkscape:connector-curvature="0" /><path
         d="m 709.188,797.332 c 3.273,3.609 4.015,9.113 4.015,22.227 0,13.179 -0.742,18.617 -4.015,22.226 -2.168,2.235 -6.2,2.945 -16.786,2.945 l -57.105,0 0,-50.343 57.121,0 c 10.59,0.015 14.602,0.726 16.77,2.945"
         style="fill:#263241;fill-opacity:1;fill-rule:nonzero;stroke:none"
         id="path30"
         inkscape:connector-curvature="0" /><path
         d="m 949.938,1018.14 c 15.89,0.02 52.652,39.31 52.652,47.98 0,2.22 -1.37,3.05 -3.34,3.05 -1.93,0 -4.473,-1.17 -5.859,-2 -18.653,-12.77 -37.301,-29.78 -50.125,-45.4 2.218,-3.34 5.285,-3.63 6.672,-3.63"
         style="fill:#263241;fill-opacity:1;fill-rule:nonzero;stroke:none"
         id="path32"
         inkscape:connector-curvature="0" /><path
         d="m 959.527,842.563 -36.793,0 c -10.941,0 -14.535,-0.778 -16.769,-2.93 -2.559,-2.559 -4.406,-10.57 -4.406,-66.356 0,-56.172 1.832,-63.843 4.406,-66.386 2.234,-2.235 5.844,-2.946 16.769,-2.946 l 36.793,0 c 10.946,0 14.551,0.711 16.789,2.946 2.539,2.558 4.387,10.57 4.387,66.386 0,55.786 -1.832,63.797 -4.387,66.356 -2.238,2.152 -5.863,2.93 -16.789,2.93"
         style="fill:#263241;fill-opacity:1;fill-rule:nonzero;stroke:none"
         id="path34"
         inkscape:connector-curvature="0" /><path
         d="m 978.637,500.547 c 3.285,3.59 4.062,9.098 4.062,22.223 0,13.128 -0.777,18.617 -4.062,22.277 -2.153,2.168 -6.168,2.898 -16.754,2.898 l -57.156,0 0,-50.347 57.156,0 c 10.586,0 14.586,0.761 16.754,2.949"
         style="fill:#263241;fill-opacity:1;fill-rule:nonzero;stroke:none"
         id="path36"
         inkscape:connector-curvature="0" /><path
         d="m 1244.91,405.699 c 16.49,0 22.67,1.121 26.31,4.711 4.02,4.059 5.46,14.961 5.46,66.016 0,51.445 -1.44,62 -5.46,66.062 -3.66,3.645 -9.84,4.727 -26.31,4.727 l -60.13,0 0.69,-141.516 59.44,0"
         style="fill:#263241;fill-opacity:1;fill-rule:nonzero;stroke:none"
         id="path38"
         inkscape:connector-curvature="0" /><path
         d="m 1368.66,844.02 -26.36,0 0,-198.418 -83.99,0 -89.91,145.515 0,-88.613 26.95,0 0.35,-56.887 -121.76,0 0,56.887 26.97,0 0,141.531 -26.97,0 0,56.903 116.07,0 84.87,-130.575 0,73.692 -25.16,0 0,56.898 118.94,0 0,-56.933 z M 291.586,702.488 l 68.793,0 0,141.532 -68.793,0 0,56.902 221.406,0 0,-56.902 -68.742,0 0,-141.532 68.742,0 0,-56.886 -221.406,0 0,56.886 z m 202.977,-296.789 0,-56.898 -132.407,0 0,56.879 28.817,0 0,39.73 -74.063,101.805 -25.305,0 0,56.902 132.536,0 0,-56.172 -22.223,0 28.051,-43.808 1.457,0 30.304,43.808 -22.257,0 0,56.172 127.675,0 0,-56.902 -25.902,0 -75.516,-100.695 0,-40.821 28.833,0 z m 168.429,296.789 0,-56.886 -129.453,0 0,56.886 26.953,0 0,141.532 -26.953,0 0,56.902 197.555,0 c 21.867,0 36.113,-3.676 45.941,-13.449 11.348,-11.336 14.957,-25.567 14.957,-57.293 0,-45.297 -12.027,-56.172 -41.554,-62.016 l 38.656,-65.676 24.41,0 0,-56.886 -78.856,0 -56.492,96.289 -42.859,0 0,-39.403 27.695,0 z m 396.468,70.774 c 0,-70.418 -8.36,-99.25 -23.38,-113.801 -9.79,-9.895 -20.79,-13.875 -47.381,-13.875 l -95.152,0 c -26.598,0 -37.555,3.98 -47.363,13.875 -15.028,14.551 -23.364,43.383 -23.364,113.801 0,70.402 8.336,99.183 23.364,113.75 9.824,9.894 20.765,13.89 47.363,13.89 l 95.152,0 c 26.591,0 37.591,-3.996 47.381,-13.89 15.02,-14.551 23.38,-43.332 23.38,-113.75 z m -30.8,387.538 c -20.38,-2.37 -46.027,-4.56 -71.387,-6.39 -19.328,-5.39 -33.964,-17.06 -45.769,-28.22 -37.879,-36.01 -64.32,-54.73 -71.402,-63.68 18.125,8.89 28.679,15.55 43.195,15.55 8.656,0 24.816,-8.89 24.816,-20.34 0,-3.34 -1.133,-4.73 -5.875,-8.9 -13.367,-11.45 -55.988,-44.84 -55.988,-59.066 0,-2.828 1.66,-3.879 3.641,-3.879 5.558,0 22.836,11.434 38.98,23.955 9.387,7.23 19.074,20.95 21.922,25.29 7.961,11.94 18.887,22.99 30.234,33.22 22.262,20.05 39.27,28.95 49.891,28.95 5.844,0 13.602,-5.84 20.632,-13.67 9.98,-9.18 10.82,-13.94 10.82,-17.52 0,-26.78 -45.952,-64.67 -66.823,-64.67 -5.863,0 -14.231,3.33 -20.344,9.79 -5.285,-8.07 -8.387,-15.064 -8.387,-20.06 0,-4.453 2.286,-10.336 10.895,-10.336 5.012,0 11.094,1.731 14.5,2.781 50.939,18.715 77.669,43.505 80.239,43.505 2.19,0 2.44,-1.73 2.44,-2.78 0,-3.07 -11.11,-15.89 -22.54,-26.225 -20.35,-18.617 -47.893,-38.167 -75.182,-38.167 -11.895,0 -36.98,26.886 -38.453,38.66 -16.942,-15.602 -45.215,-36.102 -58.293,-36.102 -15.836,0 -23.953,19.5 -23.953,33.391 0,17.553 21.48,38.163 40.386,56.843 -21.718,-9.23 -46.23,-30.11 -84.972,-77.46 -2.235,-2.508 -6.977,-13.622 -10.043,-13.622 -5.285,0 -23.684,14.79 -23.684,25.059 0,1.387 0.848,3.895 2.508,6.383 34.676,50.68 107.281,117.7 151.68,157.58 -11.281,-0.49 -21.227,-0.77 -28.34,-0.77 -8.641,0 -33.965,-20.61 -52.953,-39.01 -22.293,-21.66 -78.52,-76.57 -115.024,-123.964 -21.75,-28.071 -18.957,-37.016 -23.14,-37.016 -11.164,0 -30.391,33.168 -30.391,39.555 0,17.565 50.43,66.015 75.789,90.575 42.621,41.18 67.133,62.63 72.149,66.53 2.254,1.66 6.707,4.77 6.707,4.77 -59,10.34 -121.508,28.34 -158.981,17.96 -47.176,-13.06 -71.961,-114.46 -3.676,-89.97 28.868,10.33 55.207,32.83 70.996,52.4 6.114,7.62 10.012,3.82 3.422,-6.51 -21.226,-33.22 -53.886,-64.77 -117.074,-66.96 -60,-2.03 -48.394,93.08 23.852,124.27 28.765,12.4 72.011,7.23 127.152,7.23 129.813,0 256.266,7.88 261.878,7.88 3.59,0 4.43,3.29 29.49,-16.77 3.62,-3.07 13.4,-8.89 13.4,-13.4 0,-3.34 -11.71,-5.83 -18.94,-6.67 z m -225.676,-811.98 -114.582,0 0,55.782 23.344,0 -6.199,21.878 -82.82,0 -5.844,-21.878 23.344,0 0,-55.782 -127.235,0 0,56.879 29.153,0 67.64,199.52 114.836,0 67.371,-199.52 37.981,0 0,141.516 -26.969,0 0,56.902 197.606,0 c 21.83,0 36.08,-3.66 45.94,-13.5 11.31,-11.336 14.92,-25.512 14.92,-57.308 0,-45.164 -12.03,-56.172 -41.57,-62 l 38.68,-65.629 51.41,0 0,141.519 -26.97,0 0,56.903 174.01,0 c 36.81,0 56.54,-4.727 71.86,-20.075 17.44,-17.515 26.61,-43.793 26.61,-107.636 0,-63.75 -9.17,-90.039 -26.61,-107.481 -15.32,-15.351 -35.05,-20.109 -71.86,-20.109 l -252.87,0 -56.558,96.301 -42.86,0 0,-39.403 27.731,0 0,-56.879 -129.489,0 z m 819.676,674.57 -754.93,426.64 c -20.703,12.35 -54.496,12.35 -75.195,0 L 37.5898,1023.39 C 16.9219,1011 0,981.215 0,957.094 L 0,333.5 C 0,309.398 18.8711,284.07 41.9609,277.18 L 788.164,5.21875 c 23.09,-6.95703 60.828,-6.95703 83.902,0 L 1618.3,277.18 c 23.06,6.89 41.96,32.218 41.96,56.32 l 0,623.594 c -0.01,24.105 -16.97,53.906 -37.6,66.296"
         style="fill:#263241;fill-opacity:1;fill-rule:nonzero;stroke:none"
         id="path40"
         inkscape:connector-curvature="0" /></g></g></svg>